# xmcd
#
# Track frame offsets:
# 183
# 12730
# 28283
# 42073
# 53730
# 63915
# 74768
# 88770
# 99888
# 112778
#
# Disc length: 1699 seconds
#
# Revision: 1
# Processed by: cddbd v1.5PL3 Copyright (c) Steve Scherf et al.
# Submitted via: inCDius 2.0b9
#
DISCID=8106a10a
DTITLE=Muddy Waters - The Original Hoochie Coochie Man
DYEAR=2000
DGENRE=Blues
TTITLE0=The Stuff You Gotta Watch
TTITLE1=Iodine In My Coffee
TTITLE2=Close To You
TTITLE3=You Gonna Miss Me
TTITLE4=Mean Red Spider
TTITLE5=Diamonds At Your Feet
TTITLE6=You Gonna Need My Help
TTITLE7=She's All Right
TTITLE8=So Glad I'm Living
TTITLE9=One More Mile
EXTD=YEAR: 2000 ID3G:   0
EXTT0=
EXTT1=
EXTT2=
EXTT3=
EXTT4=
EXTT5=
EXTT6=
EXTT7=
EXTT8=
EXTT9=
PLAYORDER=
